<mxfile host="Electron" agent="Mozilla/5.0 (Windows NT 10.0; Win64; x64) AppleWebKit/537.36 (KHTML, like Gecko) draw.io/27.0.9 Chrome/134.0.6998.205 Electron/35.4.0 Safari/537.36" version="27.0.9">
  <diagram name="Page-1" id="ckHdrbjYKrRoPWDKsY7T">
    <mxGraphModel dx="2024" dy="849" grid="0" gridSize="10" guides="1" tooltips="1" connect="1" arrows="1" fold="1" page="1" pageScale="1" pageWidth="850" pageHeight="1100" background="none" math="0" shadow="0">
      <root>
        <mxCell id="0" />
        <mxCell id="1" parent="0" />
        <mxCell id="u6RmKrZkn0n1-rbqsSxz-1" value="Flask Сервер" style="ellipse;whiteSpace=wrap;html=1;fontSize=16;" vertex="1" parent="1">
          <mxGeometry x="487" y="216.5" width="159" height="101.5" as="geometry" />
        </mxCell>
        <mxCell id="u6RmKrZkn0n1-rbqsSxz-9" style="edgeStyle=orthogonalEdgeStyle;rounded=0;orthogonalLoop=1;jettySize=auto;html=1;entryX=1;entryY=0.5;entryDx=0;entryDy=0;entryPerimeter=0;fontSize=16;" edge="1" parent="1" source="u6RmKrZkn0n1-rbqsSxz-6" target="u6RmKrZkn0n1-rbqsSxz-2">
          <mxGeometry relative="1" as="geometry">
            <mxPoint x="132" y="301" as="sourcePoint" />
          </mxGeometry>
        </mxCell>
        <mxCell id="u6RmKrZkn0n1-rbqsSxz-2" value="" style="strokeWidth=2;html=1;shape=mxgraph.flowchart.direct_data;whiteSpace=wrap;rotation=-180;fontSize=16;" vertex="1" parent="1">
          <mxGeometry x="201" y="238.25" width="236" height="58.75" as="geometry" />
        </mxCell>
        <mxCell id="u6RmKrZkn0n1-rbqsSxz-3" value="20с" style="rounded=0;whiteSpace=wrap;html=1;fontSize=16;" vertex="1" parent="1">
          <mxGeometry x="365" y="238.25" width="55" height="57.75" as="geometry" />
        </mxCell>
        <mxCell id="u6RmKrZkn0n1-rbqsSxz-4" style="edgeStyle=orthogonalEdgeStyle;rounded=0;orthogonalLoop=1;jettySize=auto;html=1;entryX=0;entryY=0.5;entryDx=0;entryDy=0;entryPerimeter=0;fontSize=16;" edge="1" parent="1" source="u6RmKrZkn0n1-rbqsSxz-1" target="u6RmKrZkn0n1-rbqsSxz-2">
          <mxGeometry relative="1" as="geometry" />
        </mxCell>
        <mxCell id="u6RmKrZkn0n1-rbqsSxz-5" value="RabbitMQ" style="text;html=1;align=center;verticalAlign=middle;resizable=0;points=[];autosize=1;strokeColor=none;fillColor=none;strokeWidth=3;fontSize=16;labelBackgroundColor=default;" vertex="1" parent="1">
          <mxGeometry x="316" y="203" width="90" height="31" as="geometry" />
        </mxCell>
        <mxCell id="u6RmKrZkn0n1-rbqsSxz-13" style="edgeStyle=orthogonalEdgeStyle;rounded=0;orthogonalLoop=1;jettySize=auto;html=1;entryX=1;entryY=0.5;entryDx=0;entryDy=0;fontSize=16;" edge="1" parent="1" source="u6RmKrZkn0n1-rbqsSxz-6" target="u6RmKrZkn0n1-rbqsSxz-12">
          <mxGeometry relative="1" as="geometry" />
        </mxCell>
        <mxCell id="u6RmKrZkn0n1-rbqsSxz-6" value="Celery Обработчик" style="shape=parallelogram;perimeter=parallelogramPerimeter;whiteSpace=wrap;html=1;fixedSize=1;fontSize=16;" vertex="1" parent="1">
          <mxGeometry x="-86" y="235.68" width="179" height="63.88" as="geometry" />
        </mxCell>
        <mxCell id="u6RmKrZkn0n1-rbqsSxz-10" value="подписаться" style="text;html=1;align=center;verticalAlign=middle;resizable=0;points=[];autosize=1;strokeColor=none;fillColor=none;fontSize=16;" vertex="1" parent="1">
          <mxGeometry x="90" y="235.68" width="111" height="31" as="geometry" />
        </mxCell>
        <mxCell id="u6RmKrZkn0n1-rbqsSxz-12" value="Эмулятор" style="ellipse;whiteSpace=wrap;html=1;fontSize=16;" vertex="1" parent="1">
          <mxGeometry x="-286" y="222.62" width="136" height="89" as="geometry" />
        </mxCell>
        <mxCell id="u6RmKrZkn0n1-rbqsSxz-14" value="20с" style="rounded=0;whiteSpace=wrap;html=1;fontSize=16;" vertex="1" parent="1">
          <mxGeometry x="313" y="238.25" width="55" height="57.75" as="geometry" />
        </mxCell>
        <mxCell id="u6RmKrZkn0n1-rbqsSxz-26" style="edgeStyle=orthogonalEdgeStyle;rounded=0;orthogonalLoop=1;jettySize=auto;html=1;entryX=1;entryY=0.5;entryDx=0;entryDy=0;" edge="1" parent="1" source="u6RmKrZkn0n1-rbqsSxz-15" target="u6RmKrZkn0n1-rbqsSxz-24">
          <mxGeometry relative="1" as="geometry" />
        </mxCell>
        <mxCell id="u6RmKrZkn0n1-rbqsSxz-15" value="Celery Обработчик" style="shape=parallelogram;perimeter=parallelogramPerimeter;whiteSpace=wrap;html=1;fixedSize=1;fontSize=16;" vertex="1" parent="1">
          <mxGeometry x="-86" y="399" width="179" height="63.88" as="geometry" />
        </mxCell>
        <mxCell id="u6RmKrZkn0n1-rbqsSxz-25" style="edgeStyle=orthogonalEdgeStyle;rounded=0;orthogonalLoop=1;jettySize=auto;html=1;entryX=1;entryY=0.5;entryDx=0;entryDy=0;" edge="1" parent="1" source="u6RmKrZkn0n1-rbqsSxz-16" target="u6RmKrZkn0n1-rbqsSxz-23">
          <mxGeometry relative="1" as="geometry" />
        </mxCell>
        <mxCell id="u6RmKrZkn0n1-rbqsSxz-16" value="Celery Обработчик" style="shape=parallelogram;perimeter=parallelogramPerimeter;whiteSpace=wrap;html=1;fixedSize=1;fontSize=16;" vertex="1" parent="1">
          <mxGeometry x="-86" y="61" width="179" height="63.88" as="geometry" />
        </mxCell>
        <mxCell id="u6RmKrZkn0n1-rbqsSxz-17" style="edgeStyle=orthogonalEdgeStyle;rounded=0;orthogonalLoop=1;jettySize=auto;html=1;entryX=0.555;entryY=-0.004;entryDx=0;entryDy=0;entryPerimeter=0;curved=1;" edge="1" parent="1" source="u6RmKrZkn0n1-rbqsSxz-15" target="u6RmKrZkn0n1-rbqsSxz-2">
          <mxGeometry relative="1" as="geometry" />
        </mxCell>
        <mxCell id="u6RmKrZkn0n1-rbqsSxz-22" value="&lt;span style=&quot;&quot;&gt;подписаться&lt;/span&gt;" style="edgeLabel;html=1;align=center;verticalAlign=middle;resizable=0;points=[];fontSize=16;labelBackgroundColor=default;" vertex="1" connectable="0" parent="u6RmKrZkn0n1-rbqsSxz-17">
          <mxGeometry x="-0.0862" y="26" relative="1" as="geometry">
            <mxPoint x="-10" y="3" as="offset" />
          </mxGeometry>
        </mxCell>
        <mxCell id="u6RmKrZkn0n1-rbqsSxz-18" style="edgeStyle=orthogonalEdgeStyle;rounded=0;orthogonalLoop=1;jettySize=auto;html=1;entryX=0.544;entryY=1.017;entryDx=0;entryDy=0;entryPerimeter=0;curved=1;" edge="1" parent="1" source="u6RmKrZkn0n1-rbqsSxz-16" target="u6RmKrZkn0n1-rbqsSxz-2">
          <mxGeometry relative="1" as="geometry" />
        </mxCell>
        <mxCell id="u6RmKrZkn0n1-rbqsSxz-21" value="&lt;span style=&quot;&quot;&gt;подписаться&lt;/span&gt;" style="edgeLabel;html=1;align=center;verticalAlign=middle;resizable=0;points=[];fontSize=16;labelBackgroundColor=default;" vertex="1" connectable="0" parent="u6RmKrZkn0n1-rbqsSxz-18">
          <mxGeometry x="-0.2258" y="-20" relative="1" as="geometry">
            <mxPoint x="1" as="offset" />
          </mxGeometry>
        </mxCell>
        <mxCell id="u6RmKrZkn0n1-rbqsSxz-23" value="Эмулятор" style="ellipse;whiteSpace=wrap;html=1;fontSize=16;" vertex="1" parent="1">
          <mxGeometry x="-286" y="48.44" width="136" height="89" as="geometry" />
        </mxCell>
        <mxCell id="u6RmKrZkn0n1-rbqsSxz-24" value="Эмулятор" style="ellipse;whiteSpace=wrap;html=1;fontSize=16;" vertex="1" parent="1">
          <mxGeometry x="-276" y="386.44" width="136" height="89" as="geometry" />
        </mxCell>
      </root>
    </mxGraphModel>
  </diagram>
</mxfile>
